<?xml version="1.0" encoding="UTF-8"?><svg id="b" xmlns="http://www.w3.org/2000/svg" viewBox="0 0 289.13672 260.53076"><g id="c"><path d="m242.63184,33.86865c-5.23145-10.00781-14.62207-16.60547-27.1582-19.08008-.10352-.02051-.20801-.03906-.3125-.05615L123.65967,0l-2.86133,17.77148,91.33643,14.70557c7.10449,1.43311,11.85938,4.60938,14.5332,9.70801,5.27051,10.05322,2.34668,26.08252-.96973,37.02686l-24.05078-12.32764c-3.53711-1.8125-7.84863-1.09131-10.59961,1.77832l-48.25409,50.2962,4.79999-26.40021c.88867-4.89014-2.35449-9.57568-7.24512-10.46484l-29.84326-5.42627-3.21973,17.70996,20.98828,3.81592-4.89209,26.90576-30.83691-5.60547c-18.07861-3.2876-15.90625-18.20459-15.59863-19.89404l7.48926-41.18945c1.76123-9.68701,6.91553-13.01953,17.23389-11.14404,14.80029,2.69092,58.39795,10.11035,58.83643,10.18506l3.01953-17.74512c-.4375-.07422-43.93555-7.47705-58.63623-10.1499-8.89435-1.61615-16.72101-.56604-22.98645,2.8017-.39606-.8136-.8374-1.61011-1.36218-2.3681-2.69189-3.88867-6.73682-6.49561-11.38965-7.34131-4.65479-.84814-9.35791.16992-13.24561,2.8623-3.88867,2.69189-6.49609,6.73682-7.34229,11.39014-1.74561,9.60498,4.64795,18.84033,14.25342,20.5874,1.06641.19385,2.12695.28711,3.1748.28711.08948,0,.17712-.0105.26642-.01184l-7.0213,38.61584c-2.50098,13.75586,3.44824,35.97949,30.08936,40.82324l5.3468.97205,25.23975,4.63409-20.58801,21.45929,12.98926,12.46094,28.80719-30.02631,37.80121,6.94037.00806-.04388,25.9834,4.8808s2.96808-18.23932-22.73932-22.54779l-.18823,1.0213.1861-1.01355-26.12378-4.79645,43.35034-45.185,27.18359,13.93359c2.21094,1.13232,4.78906,1.30225,7.12598.46875,2.33789-.83301,4.22852-2.59473,5.22363-4.86865.16504-.37549,4.05469-9.33057,6.54297-21.00098,3.53418-16.58301,2.57812-30.25049-2.84277-40.62256Z" style="fill:#fff;"/><path d="m42.98828,206.79541h-23.92676c-11.45215,0-19.06152,7.2168-19.06152,19.0625v15.53223c0,11.92383,7.60938,19.14062,19.06152,19.14062h23.84766c.4707,0,.94141-.4707.94141-.94141v-29.73047c0-.4707-.39258-.86328-.8623-.86328h-18.43555c-.4707,0-.8623.39258-.8623.86328v8.08008c0,.46973.3916.8623.8623.8623h7.92383v11.92383h-11.76758c-6.19727,0-9.33496-3.37305-9.33496-9.33496v-15.4541c0-5.96191,3.1377-9.33496,9.33496-9.33496h22.2793c.46973,0,.8623-.3916.8623-.8623v-8.08008c0-.4707-.39258-.86328-.8623-.86328Z" style="fill:#fff;"/><path d="m122.36914,207.97217c-.23535-.78418-.70605-1.17676-1.49023-1.17676h-13.80664c-.78418,0-1.17676.39258-1.41211,1.17676l-16.69135,49.31555-10.76178-17.62317c7.13867-2.27539,11.61035-8.08008,11.61035-15.06152v-1.25586c0-10.04102-6.19727-16.55176-17.17969-16.55176h-24.00391c-.4707,0-.86328.4707-.86328.94141v51.93066c0,.4707.39258.86328.86328.86328h9.64844c.4707,0,.86328-.39258.86328-.86328v-18.90527h8.23633l10.11914,18.90527c.31445.5498.78516.86328,1.49121.86328h20.15723c.78418,0,1.33301-.39258,1.56836-1.09863l3.53027-11.37402h19.5332l3.53027,11.37402c.23535.70605.78418,1.09863,1.56836,1.09863h10.12012c.46973,0,.78418-.39258.78418-.94141,0-.15723-.0791-.39258-.15723-.62793l-17.25781-50.98926Zm-51.84961,22.98438h-11.37402v-14.35547h12.08008c4.5498,0,7.2168,2.35352,7.2168,6.27539v2.04004c0,3.92188-3.29395,6.04004-7.92285,6.04004Zm36.78809,7.2959l3.1377-10.12012c1.56934-5.17676,2.74609-10.66797,3.6084-14.98242.78418,4.31445,1.88281,9.80566,3.53027,14.98242l3.1377,10.12012h-13.41406Z" style="fill:#fff;"/><path d="m174.4541,232.76123c4.62891-1.49023,8.31543-5.56934,8.31543-10.74707v-1.41211c0-8.70703-6.27539-13.80664-16.62988-13.80664h-23.76953c-.4707,0-.86328.4707-.86328.94141v51.93066c0,.4707.39258.86328.86328.86328h23.69043c11.2959,0,17.80762-5.88379,17.80762-14.35547v-1.96094c0-6.11914-4.62891-10.35547-9.41406-11.45312Zm-21.57227-16.16016h13.10059c3.1377,0,5.41309,2.19629,5.41309,5.09961v1.01953c0,3.37305-2.58887,5.41211-6.19727,5.41211h-12.31641v-11.53125Zm19.61133,28.31934c0,3.37305-2.50977,5.80469-6.19727,5.80469h-13.41406v-12.78613h13.33594c3.84375,0,6.27539,2.43164,6.27539,5.88281v1.09863Z" style="fill:#fff;"/><path d="m219.16602,232.76123c4.62891-1.49023,8.31543-5.56934,8.31543-10.74707v-1.41211c0-8.70703-6.27539-13.80664-16.62988-13.80664h-23.76953c-.4707,0-.86328.4707-.86328.94141v51.93066c0,.4707.39258.86328.86328.86328h23.69043c11.2959,0,17.80762-5.88379,17.80762-14.35547v-1.96094c0-6.11914-4.62891-10.35547-9.41406-11.45312Zm-21.57227-16.16016h13.10059c3.1377,0,5.41309,2.19629,5.41309,5.09961v1.01953c0,3.37305-2.58887,5.41211-6.19727,5.41211h-12.31641v-11.53125Zm19.61133,28.31934c0,3.37305-2.50977,5.80469-6.19727,5.80469h-13.41406v-12.78613h13.33594c3.84375,0,6.27539,2.43164,6.27539,5.88281v1.09863Z" style="fill:#fff;"/><path d="m241.83496,206.79541h-9.57031c-.4707,0-.86328.4707-.86328.94141v51.93066c0,.4707.39258.86328.86328.86328h9.64844c.4707,0,.86328-.39258.86328-.86328v-51.93066c0-.4707-.4707-.94141-.94141-.94141Z" style="fill:#fff;"/><path d="m288.19531,206.79541h-41.34082c-.4707,0-.94141.4707-.94141.94141v8.78613c0,.4707.4707.86328.94141.86328h14.9834v42.28125c0,.4707.4707.86328.94141.86328h9.57031c.4707,0,.8623-.39258.8623-.86328v-42.28125h14.9834c.4707,0,.94141-.39258.94141-.86328v-8.78613c0-.4707-.4707-.94141-.94141-.94141Z" style="fill:#fff;"/></g></svg>