<?xml version="1.0" encoding="UTF-8"?>
<svg id="Layer_2" data-name="Layer 2" xmlns="http://www.w3.org/2000/svg" viewBox="0 0 199.29 176.73">
  <defs>
    <style>
      .cls-1 {
        fill: #ffffff;
        stroke-width: 0px;
      }
    </style>
  </defs>
  <g id="Layer_1-2" data-name="Layer 1">
    <path class="cls-1" d="M194.36,33.87c-5.23-10.01-14.62-16.61-27.16-19.08-.1-.02-.21-.04-.31-.06L75.38,0l-2.86,17.77,91.34,14.71c7.1,1.43,11.86,4.61,14.53,9.71,5.27,10.05,2.35,26.08-.97,37.03l-24.05-12.33c-3.54-1.81-7.85-1.09-10.6,1.78l-48.25,50.3,4.8-26.4c.89-4.89-2.35-9.58-7.25-10.46l-29.84-5.43-3.22,17.71,20.99,3.82-4.89,26.91-30.84-5.61c-18.08-3.29-15.91-18.2-15.6-19.89l7.49-41.19c1.76-9.69,6.92-13.02,17.23-11.14,14.8,2.69,58.4,10.11,58.84,10.19l3.02-17.75c-.44-.07-43.94-7.48-58.64-10.15-8.89-1.62-16.72-.57-22.99,2.8-.4-.81-.84-1.61-1.36-2.37-2.69-3.89-6.74-6.5-11.39-7.34-4.65-.85-9.36.17-13.25,2.86-3.89,2.69-6.5,6.74-7.34,11.39-1.75,9.6,4.65,18.84,14.25,20.59,1.07.19,2.13.29,3.17.29.09,0,.18-.01.27-.01l-7.02,38.62c-2.5,13.76,3.45,35.98,30.09,40.82l5.35.97,25.24,4.63-20.59,21.46,12.99,12.46,28.81-30.03,37.8,6.94v-.04s25.99,4.88,25.99,4.88c0,0,2.97-18.24-22.74-22.55l-.19,1.02.19-1.01-26.12-4.8,43.35-45.18,27.18,13.93c2.21,1.13,4.79,1.3,7.13.47,2.34-.83,4.23-2.59,5.22-4.87.17-.38,4.05-9.33,6.54-21,3.53-16.58,2.58-30.25-2.84-40.62Z"/>
  </g>
</svg>